<?xml version="1.0" encoding="UTF-8"?>
<svg id="Layer_2" data-name="Layer 2" xmlns="http://www.w3.org/2000/svg" viewBox="0 0 484.45 411.39">
  <defs>
    <style>
      .cls-1, .cls-2 {
        fill: none;
        stroke-width: 15px;
      }

      .cls-1, .cls-2, .cls-3 {
        stroke: #c92380;
        stroke-linecap: round;
      }

      .cls-1, .cls-3 {
        stroke-linejoin: round;
      }

      .cls-2 {
        stroke-miterlimit: 10;
      }

      .cls-3 {
        fill: #c92380;
        stroke-width: 12px;
      }
    </style>
  </defs>
  <path class="cls-2" d="M476.95,215.33S46.39,262,7.65,375.58c0,0-4.38,29.17,34.97,28.14,0,0,55.52,13.52,169.14-202.61,0,0,69.86-134.51,36.56-184.14,0,0-28.08-48.97-58.77,75.75,0,0-32.65,163.89-8.49,287.96"/>
  <path class="cls-1" d="M262.1,169.59s-15.62,36.04-1.86,50.12c0,0,12.83,11.57,49.43-66.32,0,0-21.58,42.85,27.53,0,0,0-27.53,75.2,6.25,52.31l49.74-40.73"/>
  <path class="cls-2" d="M347.81,120.95l3.4-9.02"/>
  <rect class="cls-3" x="164.29" y="263" width="14.16" height="25.07" transform="translate(-151.65 244.77) rotate(-52.68)"/>
</svg>